<svg xmlns="http://www.w3.org/2000/svg" viewBox="0 0 64 64" role="img" aria-label="JT">
  <defs>
    <linearGradient id="bg" x1="12" x2="52" y1="8" y2="58" gradientUnits="userSpaceOnUse">
      <stop offset="0" stop-color="#08060d" />
      <stop offset="0.58" stop-color="#2a1740" />
      <stop offset="1" stop-color="#aa3bff" />
    </linearGradient>
    <linearGradient id="edge" x1="14" x2="50" y1="8" y2="56" gradientUnits="userSpaceOnUse">
      <stop offset="0" stop-color="#ffffff" stop-opacity="0.72" />
      <stop offset="1" stop-color="#c084fc" stop-opacity="0.85" />
    </linearGradient>
  </defs>
  <rect width="64" height="64" rx="14" fill="url(#bg)" />
  <rect x="5" y="5" width="54" height="54" rx="11" fill="none" stroke="url(#edge)" stroke-width="2" />
  <path
    fill="#ffffff"
    d="M15 18h20v6h-7v17c0 3.2-.9 5.6-2.7 7.2-1.7 1.6-4.1 2.4-7.1 2.4-1.2 0-2.4-.1-3.6-.4v-6c.9.2 1.7.3 2.5.3 2.9 0 4.3-1.3 4.3-4V24H15v-6Zm23 0h18v6h-5.7v26h-6.6V24H38v-6Z"
  />
</svg>
